<svg xmlns="http://www.w3.org/2000/svg" xmlns:xlink="http://www.w3.org/1999/xlink" width="60" height="68" viewBox="0 0 60 68"><defs><clipPath id="clip-path"><rect id="Rectángulo_5684" data-name="Rectángulo 5684" width="60" height="68" transform="translate(58 -63)" fill="#fff"/></clipPath><clipPath id="clip-path-2"><rect id="Rectángulo_4736" data-name="Rectángulo 4736" width="215.764" height="67.961" fill="none"/></clipPath></defs><g id="Enmascarar_grupo_1" data-name="Enmascarar grupo 1" transform="translate(-58 63)" clip-path="url(#clip-path)"><g id="Objeto_inteligente_vectorial" data-name="Objeto inteligente vectorial" transform="translate(58 -63)"><g id="Objeto_inteligente_vectorial-2" data-name="Objeto inteligente vectorial" transform="translate(0 0)"><g id="Grupo_9495" data-name="Grupo 9495"><g id="Grupo_9494" data-name="Grupo 9494" clip-path="url(#clip-path-2)"><path id="Trazado_5146" data-name="Trazado 5146" d="M30.928,24.721a5.225,5.225,0,0,1-1.787,4.087A7.014,7.014,0,0,1,24.3,30.472,8.886,8.886,0,0,1,19.432,29.1l-.779.9H17.7l-.143-6.513h.979q1.325,3.8,3.516,5.173a3.656,3.656,0,0,0,1.989.544,3.491,3.491,0,0,0,2.162-.652A2.773,2.773,0,0,0,27.21,26.24q0-1.99-2.825-3.039-1.1-.362-3.229-1.227a5.086,5.086,0,0,1-3.2-5.065,5.172,5.172,0,0,1,1.629-3.834,6.019,6.019,0,0,1,4.395-1.591A8.063,8.063,0,0,1,28.3,12.71l.664-.755h.981l.115,6.15h-.981a13.311,13.311,0,0,0-1.757-3.726,3.6,3.6,0,0,0-2.969-1.628,2.784,2.784,0,0,0-1.845.651,2.527,2.527,0,0,0-.894,2.026q0,1.953,2.739,3l1.7.615a23.205,23.205,0,0,1,2.19.944,5.09,5.09,0,0,1,1.845,1.665,5.345,5.345,0,0,1,.835,3.074" transform="translate(45.578 30.225)" fill="#0e1d15"/><path id="Trazado_5147" data-name="Trazado 5147" d="M37.13,26.653h-7v-.807q1.881-.178,1.88-.628a2.364,2.364,0,0,0-.093-.478l-.761-2.84H26.8a5.342,5.342,0,0,0-.357.777q-.239.689-.523,1.888a1.927,1.927,0,0,0-.047.359c0,.219.149.409.451.566q.024.151.739.359v.8H21.652v-.807a2.734,2.734,0,0,0,1.308-.359,3.037,3.037,0,0,0,1.071-1.493l.858-2.331a9.993,9.993,0,0,0-1.144-1.405A9.383,9.383,0,0,0,24.89,19.6a3.95,3.95,0,0,0,1.027-.778l.285-.747,2.406-6.546h1.859l2.857,8.01q1.048,3.02,1.763,4.871a2.143,2.143,0,0,0,2.047,1.435Zm-6.357-6.635-1.521-5.412-1.88,5.41Z" transform="translate(56.212 30.359)" fill="#0e1d15"/><path id="Trazado_5148" data-name="Trazado 5148" d="M41.488,12.419a2.136,2.136,0,0,0-1.238.509q-.644.538-.643,2.989V26.5h-1.83l-8.22-11.457v7q0,2.395.643,2.992a1.973,1.973,0,0,0,.81.389,4.028,4.028,0,0,0,.666.269V26.5H26.01v-.807a2.331,2.331,0,0,0,1.274-.553q.608-.493.608-2.973V15.11a2.616,2.616,0,0,0-.581-1.793,2.717,2.717,0,0,0-1.3-.9v-.835h4.9l7.025,10.1V16.036q0-2.391-.643-2.989a2.254,2.254,0,0,0-.81-.418,5.647,5.647,0,0,0-.666-.21v-.834h5.667Z" transform="translate(67.525 30.514)" fill="#0e1d15"/><path id="Trazado_5149" data-name="Trazado 5149" d="M50.94,30.565H42.128V29.55q2.368-.226,2.368-.79a3.024,3.024,0,0,0-.121-.6l-.958-3.573H37.929a6.521,6.521,0,0,0-.448.978q-.3.867-.66,2.37a2.554,2.554,0,0,0-.06.451c0,.277.187.514.569.715.021.126.331.277.934.452v1.016h-6.8V29.55a3.443,3.443,0,0,0,1.649-.452,3.809,3.809,0,0,0,1.344-1.879l1.081-2.935a12.41,12.41,0,0,0-1.44-1.769,11.975,11.975,0,0,0,1.44-.828,4.963,4.963,0,0,0,1.288-.978l.361-.944,3.028-8.239h2.335l3.6,10.084q1.318,3.8,2.218,6.135a2.7,2.7,0,0,0,2.578,1.806Zm-8-8.35-1.919-6.81-2.368,6.81Z" transform="translate(81.671 30.36)" fill="#0e1d15"/><path id="Trazado_5150" data-name="Trazado 5150" d="M52.122,12.419a2.136,2.136,0,0,0-1.238.509q-.644.538-.643,2.989V26.5h-1.83l-8.22-11.457v7q0,2.395.643,2.992a1.973,1.973,0,0,0,.81.389,4.029,4.029,0,0,0,.666.269V26.5H36.644v-.807a2.331,2.331,0,0,0,1.274-.553q.608-.493.608-2.973V15.11a2.616,2.616,0,0,0-.581-1.793,2.717,2.717,0,0,0-1.3-.9v-.835h4.9l7.025,10.1V16.036q0-2.391-.643-2.989a2.254,2.254,0,0,0-.81-.418,5.647,5.647,0,0,0-.666-.21v-.834h5.667Z" transform="translate(95.131 30.514)" fill="#0e1d15"/><path id="Trazado_5151" data-name="Trazado 5151" d="M55.927,19.148A6.789,6.789,0,0,1,53.5,24.737,8.489,8.489,0,0,1,48,26.5H41.33v-.806a4.324,4.324,0,0,0,1.334-.21,1.065,1.065,0,0,0,.595-1.077V20.343a10.035,10.035,0,0,0-1.143-1.4,7.311,7.311,0,0,0,1.143-1.4V13.854a1.19,1.19,0,0,0-.595-1.133,3.518,3.518,0,0,0-1.358-.3v-.833h7.025a7.723,7.723,0,0,1,5.24,1.793,7.262,7.262,0,0,1,2.358,5.768m-3.736,0a9.074,9.074,0,0,0-1.108-4.827,3.515,3.515,0,0,0-3.155-1.779c-.206,0-.453.011-.738.031l-.62.029V23.9a1.461,1.461,0,0,0,.934,1.523,2.277,2.277,0,0,0,.809.12,3.208,3.208,0,0,0,3.024-1.734,10.154,10.154,0,0,0,.857-4.662" transform="translate(107.234 30.51)" fill="#0e1d15"/><path id="Trazado_5152" data-name="Trazado 5152" d="M65.8,34.332h-.945a7.072,7.072,0,0,0-5.3-2.621L58.07,29.518q-2.864-4.421-5.553-8.09h-.6v5.462a1.317,1.317,0,0,0,.717,1.293,5.9,5.9,0,0,0,1.461.36v.975H45.615v-.972q.6-.072,1.6-.283a1.278,1.278,0,0,0,.717-1.293V22.113a15.7,15.7,0,0,0-1.375-1.69,8.731,8.731,0,0,0,1.375-1.688V14.314a1.277,1.277,0,0,0-.717-1.293,6.2,6.2,0,0,0-1.6-.431V11.584H54.52q6.071,0,6.071,4.24,0,3.559-3.865,4.814ZM56.125,15.408a2.861,2.861,0,0,0-.738-2.182,3.493,3.493,0,0,0-2.1-.388h-.738v5.648h.715a3.034,3.034,0,0,0,2.119-.509,3.736,3.736,0,0,0,.738-2.57" transform="translate(118.421 30.514)" fill="#0e1d15"/><path id="Trazado_5153" data-name="Trazado 5153" d="M63.176,21.863,62.909,26.5H50.531v-.807a4.487,4.487,0,0,0,1.356-.257.937.937,0,0,0,.452-.4l.12-.661v-4.03a12.987,12.987,0,0,0-1.143-1.4,7.207,7.207,0,0,0,1.143-1.4V13.85a2.834,2.834,0,0,0-.093-.628q-.168-.448-1.167-.687c-.286-.059-.508-.094-.666-.12v-.831H62.246v3.8h-.715a5,5,0,0,0-.738-1.465,1.227,1.227,0,0,0-.762-.448c-.238-.04-.491-.085-.761-.135a10.652,10.652,0,0,0-1.571-.075H55.77v5.021h1.358a2.1,2.1,0,0,0,1.666-.628,3.749,3.749,0,0,0,.738-1.943h.715v6.155h-.715a3.879,3.879,0,0,0-.7-1.973,2.073,2.073,0,0,0-1.7-.661H55.769v3.347q0,1.317.405,1.659a2.989,2.989,0,0,0,1.763.344,8.3,8.3,0,0,0,2.309-.239,5.812,5.812,0,0,0,.882-.3q.215-.06.81-.838a10.093,10.093,0,0,0,.547-1.344Z" transform="translate(131.185 30.514)" fill="#0e1d15"/><path id="Trazado_5154" data-name="Trazado 5154" d="M65.5,22.42A4.316,4.316,0,0,1,64.025,25.8a5.8,5.8,0,0,1-4,1.375A7.349,7.349,0,0,1,56,26.04l-.644.747h-.785l-.12-5.38h.809a7.9,7.9,0,0,0,2.906,4.274,3.028,3.028,0,0,0,1.643.448A2.882,2.882,0,0,0,61.6,25.59a2.291,2.291,0,0,0,.834-1.912q0-1.643-2.335-2.51-.9-.3-2.667-1.017a4.2,4.2,0,0,1-2.641-4.186A4.269,4.269,0,0,1,56.133,12.8a4.97,4.97,0,0,1,3.632-1.314A6.673,6.673,0,0,1,63.336,12.5l.548-.628h.81l.093,5.081h-.81a11.017,11.017,0,0,0-1.452-3.078,2.981,2.981,0,0,0-2.454-1.345,2.3,2.3,0,0,0-1.523.538,2.086,2.086,0,0,0-.739,1.673q0,1.615,2.262,2.481l1.4.509a19.277,19.277,0,0,1,1.81.777,4.188,4.188,0,0,1,1.523,1.375,4.412,4.412,0,0,1,.691,2.54" transform="translate(141.362 30.226)" fill="#0e1d15"/><path id="Trazado_5155" data-name="Trazado 5155" d="M51.979,13.783,53.5,9.854l2.027.566-.451,1.157a3.485,3.485,0,0,1-1.609,1.993,2.108,2.108,0,0,1-1.045.233Z" transform="translate(134.942 25.955)" fill="#0e1d15"/><path id="Trazado_5156" data-name="Trazado 5156" d="M40.428,4.671a3.291,3.291,0,0,0-1.646.6,2.179,2.179,0,0,0-.592.807q-.323.631-.619,1.227l-6.791,18.25H28.137L21.692,7.229a3.917,3.917,0,0,0-1.479-1.962,3.949,3.949,0,0,0-1.7-.6V3.408h9.3V4.671q-2.429.348-2.429.978a3.257,3.257,0,0,0,.187.873q.841,2.762,2.344,6.918,2.185,6.079,2.454,6.848,1.32-3.86,2.21-6.493l1.565-4.7A12.809,12.809,0,0,0,34.9,5.969a1,1,0,0,0-.619-.842q-.217-.142-.472-.283a2.484,2.484,0,0,0-.957-.176V3.408h7.575Z" transform="translate(48.065 8.978)" fill="#0e1d15"/><path id="Trazado_5157" data-name="Trazado 5157" d="M30.985,20.379H23.841V19.56l.722-.094a1.782,1.782,0,0,0,.654-.121,1.083,1.083,0,0,0,.581-1.091V14.136a9.889,9.889,0,0,0-1.121-1.424A7.237,7.237,0,0,0,25.8,11.287V7.56a1.066,1.066,0,0,0-.546-1.076,5,5,0,0,0-1.409-.378v-.85h7.144v.85q-.841.094-1,.121c-.449.1-.722.267-.814.5a1.915,1.915,0,0,0-.138.712v3.848a9.779,9.779,0,0,0,1.121,1.424,9.219,9.219,0,0,0-1.121,1.424v4.03a1.118,1.118,0,0,0,.581,1.091,4.763,4.763,0,0,0,1.373.3Z" transform="translate(61.893 13.848)" fill="#0e1d15"/><path id="Trazado_5158" data-name="Trazado 5158" d="M38.321,15.531l-.233,4.849H26.2v-.818q.488-.06,1.3-.243a1.082,1.082,0,0,0,.582-1.09V14.137a9.962,9.962,0,0,0-1.121-1.424,7.242,7.242,0,0,0,1.121-1.424V7.561A1.121,1.121,0,0,0,27.5,6.47a4.547,4.547,0,0,0-1.3-.363v-.85h7.074v.85a6.691,6.691,0,0,0-1,.121c-.449.121-.722.293-.813.514a1.785,1.785,0,0,0-.141.7v3.85a9.964,9.964,0,0,0,1.121,1.424,9.263,9.263,0,0,0-1.121,1.424v2.031q0,1.363.4,1.7a3.231,3.231,0,0,0,1.838.333,10.381,10.381,0,0,0,1.394-.094,2.159,2.159,0,0,0,1.19-.454,7.487,7.487,0,0,0,1.14-1.272,9.25,9.25,0,0,0,.4-.85Z" transform="translate(68.009 13.848)" fill="#0e1d15"/><path id="Trazado_5159" data-name="Trazado 5159" d="M42,15.531l-.233,4.849H29.879v-.818q.488-.06,1.3-.243a1.082,1.082,0,0,0,.582-1.09V14.137a9.963,9.963,0,0,0-1.121-1.424,7.242,7.242,0,0,0,1.121-1.424V7.561a1.121,1.121,0,0,0-.582-1.091,4.548,4.548,0,0,0-1.3-.363v-.85h7.074v.85a6.691,6.691,0,0,0-1,.121c-.449.121-.722.293-.813.514a1.785,1.785,0,0,0-.141.7v3.85a9.962,9.962,0,0,0,1.121,1.424A9.261,9.261,0,0,0,35,14.137v2.031q0,1.363.4,1.7a3.231,3.231,0,0,0,1.838.333,10.381,10.381,0,0,0,1.394-.094,2.159,2.159,0,0,0,1.19-.454,7.486,7.486,0,0,0,1.14-1.272,9.25,9.25,0,0,0,.4-.85Z" transform="translate(77.569 13.848)" fill="#0e1d15"/><path id="Trazado_5160" data-name="Trazado 5160" d="M48.42,20.526H41.579v-.818q1.834-.183,1.834-.635a2.515,2.515,0,0,0-.093-.484l-.747-2.879H38.314a5.141,5.141,0,0,0-.348.788q-.233.7-.512,1.909a2.151,2.151,0,0,0-.047.364c0,.222.147.413.443.576.014.1.256.223.722.363v.818H33.288v-.818a2.6,2.6,0,0,0,1.282-.363,3.086,3.086,0,0,0,1.047-1.515l.841-2.36a10.042,10.042,0,0,0-1.121-1.424,9.412,9.412,0,0,0,1.121-.667,3.865,3.865,0,0,0,1-.787l.28-.755L40.089,5.2H41.9L44.7,13.319q1.027,3.06,1.722,4.939a2.1,2.1,0,0,0,2,1.455ZM42.207,13.8l-1.49-5.485L38.878,13.8Z" transform="translate(86.419 13.701)" fill="#0e1d15"/><path id="Trazado_5161" data-name="Trazado 5161" d="M48.458,16.248a4.459,4.459,0,0,1-1.443,3.423,5.543,5.543,0,0,1-3.911,1.4,6.986,6.986,0,0,1-3.933-1.153l-.629.755h-.768l-.117-5.455h.791a8,8,0,0,0,2.84,4.333A2.873,2.873,0,0,0,42.894,20a2.74,2.74,0,0,0,1.745-.546,2.358,2.358,0,0,0,.814-1.94q0-1.666-2.279-2.549-.887-.3-2.608-1.031a4.27,4.27,0,0,1-2.582-4.242A4.412,4.412,0,0,1,39.3,6.485a4.756,4.756,0,0,1,3.549-1.333,6.34,6.34,0,0,1,3.491,1.03l.534-.636h.791l.093,5.151h-.791a11.294,11.294,0,0,0-1.42-3.121,2.881,2.881,0,0,0-2.4-1.364,2.2,2.2,0,0,0-1.49.546,2.149,2.149,0,0,0-.72,1.7q0,1.637,2.21,2.516l1.373.514a18.892,18.892,0,0,1,1.769.787,4.167,4.167,0,0,1,1.489,1.4,4.609,4.609,0,0,1,.674,2.575" transform="translate(97.762 13.555)" fill="#0e1d15"/><path id="Trazado_5162" data-name="Trazado 5162" d="M57.492,12.934A7,7,0,0,1,55.117,18.6a8.1,8.1,0,0,1-5.376,1.787H43.224v-.818a4.024,4.024,0,0,0,1.308-.211,1.084,1.084,0,0,0,.582-1.091V14.147a9.977,9.977,0,0,0-1.121-1.424A7.25,7.25,0,0,0,45.113,11.3V7.57a1.216,1.216,0,0,0-.582-1.152,3.333,3.333,0,0,0-1.326-.3v-.85H50.07a7,7,0,0,1,5.438,2.127,7.16,7.16,0,0,1,1.987,5.539m-3.655,0a9.486,9.486,0,0,0-1.083-4.893,3.408,3.408,0,0,0-3.082-1.8c-.2,0-.442.01-.722.03l-.606.031V17.753a1.488,1.488,0,0,0,.909,1.545,2.156,2.156,0,0,0,.791.12A3.115,3.115,0,0,0,53,17.662a10.634,10.634,0,0,0,.841-4.727" transform="translate(112.164 13.838)" fill="#0e1d15"/><path id="Trazado_5163" data-name="Trazado 5163" d="M59.931,15.682l-.256,4.7h-12.1v-.818A4.263,4.263,0,0,0,48.9,19.3a.938.938,0,0,0,.443-.41l.117-.665V14.137a13.159,13.159,0,0,0-1.121-1.424,7.279,7.279,0,0,0,1.121-1.424V7.56a2.932,2.932,0,0,0-.093-.636q-.163-.454-1.14-.7c-.28-.061-.5-.1-.654-.121v-.85h11.45V9.106h-.7A5.163,5.163,0,0,0,57.6,7.621a1.185,1.185,0,0,0-.747-.454c-.234-.042-.481-.086-.747-.137a9.914,9.914,0,0,0-1.536-.076H52.686v5.09h1.327a2.01,2.01,0,0,0,1.629-.635,3.9,3.9,0,0,0,.722-1.971h.7v6.243h-.7a4.027,4.027,0,0,0-.687-2,1.989,1.989,0,0,0-1.664-.667H52.687v3.4q0,1.334.4,1.681a2.836,2.836,0,0,0,1.722.348,7.76,7.76,0,0,0,2.258-.243,5.4,5.4,0,0,0,.861-.3c.141-.041.4-.323.791-.85a10.693,10.693,0,0,0,.536-1.364Z" transform="translate(123.502 13.848)" fill="#0e1d15"/><path id="Trazado_5164" data-name="Trazado 5164" d="M15.653,8.9l-4-.014c.259-2.737-3.332-2.718-3.066-.011L4.458,8.856V20.377l11.194,2.2Zm-2.767,8.088H7.352V11.391h5.534Z" transform="translate(11.574 18.005)" fill="#0e1d15"/><path id="Trazado_5165" data-name="Trazado 5165" d="M13.557,10.538v5.309a2.044,2.044,0,0,0,1.506-1.96c1.221-2,1.577,2.448-1.506,2.926v1a2.767,2.767,0,0,0,2.471-2.445l.265-.07a1.826,1.826,0,0,0-.163-3.552l-.137-.271a1.644,1.644,0,0,0-.166-1.932,1.6,1.6,0,0,0-1.876-.4c-.216-1.236-1.513-1.264-1.85-.059a1.483,1.483,0,0,0-1.2.335,1.517,1.517,0,0,0-.532,1.141,1.827,1.827,0,0,0-1.87,1.458,1.846,1.846,0,0,0,1.122,2.1l.07.292a1.259,1.259,0,0,0-.161,1.534,1.229,1.229,0,0,0,1.437.521,3.1,3.1,0,0,0,1.612,1.243V14.252c-2.615-.378-1.648-3.741-.754-1.925a.941.941,0,0,0,.754.923v-2.7a.491.491,0,0,1,.982-.012" transform="translate(21.948 21.585)" fill="#0e1d15"/><rect id="Rectángulo_4733" data-name="Rectángulo 4733" width="3.019" height="3.051" transform="translate(20.184 30.667)" fill="#0e1d15"/><path id="Trazado_5166" data-name="Trazado 5166" d="M53.726,1.206v52.7A110.855,110.855,0,0,0,30.384,64.737L27.46,66.53l-3.349-2.241A76.9,76.9,0,0,0,1.194,53.906V1.206ZM54.922,0H0V54.834l.889.237A75.552,75.552,0,0,1,23.453,65.3L26.8,67.539l.631.422.647-.4L31,65.77A109.821,109.821,0,0,1,54.1,55.052l.824-.271V0Z" fill="#0e1d15"/><path id="Trazado_5167" data-name="Trazado 5167" d="M.8.9V50.249a72.006,72.006,0,0,1,21.46,9.722l3.136,2.1,2.738-1.684A103.8,103.8,0,0,1,49.986,50.247V.9ZM44.526,37.977H42.775V15.459H8v19.47l4.709.924V23.2l4.253.015a2.774,2.774,0,0,1,5.335.019l4.121.015V38.539l6.007,1.179a12.05,12.05,0,0,0,.032-1.7A3.789,3.789,0,0,1,30.389,36.8a2.251,2.251,0,0,1-1.827-.955,2.3,2.3,0,0,1-.3-2.057,2.914,2.914,0,0,1-.93-2.84,2.883,2.883,0,0,1,2.051-2.156A2.4,2.4,0,0,1,31.3,27.228a1.907,1.907,0,0,1,3.184-.087,2.6,2.6,0,0,1,2.057.91,2.663,2.663,0,0,1,.6,2.187,2.91,2.91,0,0,1-.335,5.185,3.753,3.753,0,0,1-3.363,2.668v1.821l10.714,2.1v2.091L6.372,36.691v-.124H6.244V13.693H44.526Z" transform="translate(2.069 2.381)" fill="#0e1d15"/><rect id="Rectángulo_4734" data-name="Rectángulo 4734" width="24.492" height="0.433" transform="translate(134.68 59.66)" fill="#0e1d15"/><path id="Trazado_5168" data-name="Trazado 5168" d="M58.519,16.953c.772,0,1.477.632,2.381.632a10.209,10.209,0,0,0,3.069-.671.021.021,0,0,0,0-.04A10.243,10.243,0,0,0,60.9,16.2c-.9,0-1.609.632-2.381.632l-.055.058Z" transform="translate(151.778 42.681)" fill="#0e1d15"/><path id="Trazado_5169" data-name="Trazado 5169" d="M58.486,17.737c.393.039.229.494.406.494s.494.578-.013.578c-.574,0-.431-.378-.431-.378,0,.1.28.149.28-.094s-.5-.319-.5.094c0,.513.32.529.662.529a.41.41,0,0,0,.4-.222.419.419,0,0,0-.051-.461.436.436,0,0,1-.194-.378.139.139,0,0,1,.093-.126.3.3,0,0,0,0-.6.137.137,0,0,1-.093-.126.436.436,0,0,1,.194-.378.419.419,0,0,0,.051-.461.41.41,0,0,0-.4-.222c-.342,0-.662.017-.662.529,0,.414.5.338.5.094s-.28-.2-.28-.094c0,0-.144-.378.431-.378.507,0,.187.578.013.578s-.013.455-.406.493-.392.179-.392.179v.179s0,.141.392.179" transform="translate(150.818 42.106)" fill="#0e1d15"/><path id="Trazado_5170" data-name="Trazado 5170" d="M60.734,17.035c.342,0,.435-.283.7-.357.021,0,.021-.025,0-.03-.267-.07-.361-.356-.7-.356-.39,0-2.22.283-3.015.283a6.4,6.4,0,0,0-.813.034c-.047.008-.084.026-.084.034v.034c0,.009.036.028.084.034a6.069,6.069,0,0,0,.813.035c.795,0,2.625.283,3.015.283" transform="translate(147.516 42.914)" fill="#0e1d15"/><path id="Trazado_5171" data-name="Trazado 5171" d="M58.067,16.462a.093.093,0,1,0,.093-.094.094.094,0,0,0-.093.094" transform="translate(150.749 43.114)" fill="#0e1d15"/><rect id="Rectángulo_4735" data-name="Rectángulo 4735" width="21.554" height="0.433" transform="translate(181.893 59.66)" fill="#0e1d15"/></g></g></g><path id="Color_Overlay" data-name="Color Overlay" d="M45.5,71.954l-3.349-2.24A75.572,75.572,0,0,0,19.589,59.487L18.7,59.25V4.416H73.623V59.2l-.824.272A109.83,109.83,0,0,0,49.708,70.184l-2.924,1.793-.649.4ZM19.895,58.321A76.911,76.911,0,0,1,42.813,68.7l3.349,2.241,2.924-1.793a110.9,110.9,0,0,1,23.341-10.83V5.622H19.895ZM201.979,69.262a7.072,7.072,0,0,0-5.3-2.62l-1.489-2.194q-2.864-4.422-5.553-8.09h-.6v5.463a1.315,1.315,0,0,0,.717,1.293,5.88,5.88,0,0,0,1.461.361v.973h-8.476v-.972q.6-.072,1.6-.283a1.279,1.279,0,0,0,.716-1.293V57.042a15.732,15.732,0,0,0-1.375-1.69,8.693,8.693,0,0,0,1.375-1.688V49.243a1.278,1.278,0,0,0-.718-1.294,6.2,6.2,0,0,0-1.6-.431v-1h8.905q6.071,0,6.071,4.24,0,3.559-3.865,4.814l9.079,13.694Zm-12.3-15.846h.714a3.037,3.037,0,0,0,2.12-.508,3.735,3.735,0,0,0,.738-2.569,2.861,2.861,0,0,0-.738-2.182,3.494,3.494,0,0,0-2.1-.388h-.737ZM43.025,66.773A72,72,0,0,0,21.567,57.05V7.7H70.756V57.047A103.8,103.8,0,0,0,48.9,67.188l-2.738,1.681ZM27.014,43.364h.125v.124L64.918,50.9V48.821L54.2,46.719V44.9a3.754,3.754,0,0,0,3.363-2.668,2.909,2.909,0,0,0,.335-5.185,2.663,2.663,0,0,0-.6-2.187,2.6,2.6,0,0,0-2.057-.91,1.907,1.907,0,0,0-3.183.087A2.4,2.4,0,0,0,50.142,35.6a2.883,2.883,0,0,0-2.051,2.156,2.914,2.914,0,0,0,.93,2.84,2.3,2.3,0,0,0,.3,2.057,2.251,2.251,0,0,0,1.827.955,3.792,3.792,0,0,0,2.065,1.22,12.062,12.062,0,0,1-.031,1.7l-6-1.184V30.049l-4.121-.014a2.773,2.773,0,0,0-5.334-.02L33.477,30V42.644l-4.709-.924V22.255H63.544V44.773H65.3V20.489H27.014ZM227.753,64.952c0-.413.494-.338.494-.094s-.28.2-.28.094c0,0-.144.378.432.378.507,0,.187-.578.013-.578s-.013-.455-.407-.494c-.337-.033-.384-.142-.391-.172h0a.093.093,0,0,1-.074-.036c-.187.107-.3.31-.588.31-.39,0-2.22-.283-3.014-.283a6.175,6.175,0,0,1-.813-.035c-.047-.006-.084-.025-.084-.034v-.032c0-.008.037-.026.084-.034a6.424,6.424,0,0,1,.813-.034c.794,0,2.625-.283,3.014-.283.289,0,.4.2.588.31a.093.093,0,0,1,.074-.035h0c.006-.028.05-.139.391-.174.393-.037.229-.493.407-.493s.493-.578-.013-.578c-.575,0-.432.378-.432.378,0-.1.28-.149.28.094s-.494.319-.494-.094c0-.513.32-.53.661-.53a.411.411,0,0,1,.4.223.42.42,0,0,1-.051.461.437.437,0,0,0-.194.378.137.137,0,0,0,.093.126.3.3,0,0,1,0,.6.138.138,0,0,0-.093.126.437.437,0,0,0,.194.378.419.419,0,0,1,.051.461.41.41,0,0,1-.4.222C228.074,65.481,227.753,65.464,227.753,64.952ZM142.5,65.34V64.325q2.368-.226,2.367-.79a3.009,3.009,0,0,0-.12-.6l-.959-3.573H138.3a6.423,6.423,0,0,0-.448.978q-.3.867-.66,2.37a2.586,2.586,0,0,0-.06.451c0,.277.187.514.569.715.021.126.331.277.934.452v1.016h-6.8V64.325a3.45,3.45,0,0,0,1.649-.452,3.807,3.807,0,0,0,1.343-1.879l1.081-2.935a12.408,12.408,0,0,0-1.44-1.769,11.91,11.91,0,0,0,1.44-.828,4.955,4.955,0,0,0,1.288-.978l.361-.944L140.58,46.3h2.335l3.6,10.083q1.319,3.8,2.218,6.135a2.7,2.7,0,0,0,2.578,1.8V65.34Zm-3.479-8.349h4.287l-1.919-6.809ZM83.71,63.739l-.778.905H81.98l-.143-6.513h.98q1.325,3.8,3.517,5.173a3.658,3.658,0,0,0,1.989.544,3.5,3.5,0,0,0,2.163-.652,2.776,2.776,0,0,0,1.009-2.314q0-1.991-2.825-3.038-1.1-.362-3.23-1.227a5.086,5.086,0,0,1-3.2-5.065,5.172,5.172,0,0,1,1.629-3.835,6.018,6.018,0,0,1,4.395-1.591,8.063,8.063,0,0,1,4.322,1.227l.664-.755h.98l.115,6.149h-.98a13.321,13.321,0,0,0-1.757-3.726,3.6,3.6,0,0,0-2.97-1.628,2.784,2.784,0,0,0-1.845.651,2.526,2.526,0,0,0-.894,2.026q0,1.952,2.738,3l1.7.615a23.034,23.034,0,0,1,2.19.944,5.09,5.09,0,0,1,1.845,1.664,5.346,5.346,0,0,1,.836,3.074,5.224,5.224,0,0,1-1.787,4.088,7.014,7.014,0,0,1-4.841,1.663,8.882,8.882,0,0,1-4.872-1.38ZM229,64.05l-.055-.058.055-.059c.772,0,1.477-.632,2.381-.632a10.243,10.243,0,0,1,3.069.671.02.02,0,0,1,0,.039,10.216,10.216,0,0,1-3.069.671c-.906,0-1.611-.632-2.384-.632Zm-28.405.46v-.433H222.15v.433Zm-47.213,0v-.433h24.491v.433Zm62.681-3.83-.644.747h-.786l-.12-5.38h.809a7.894,7.894,0,0,0,2.906,4.274,3.023,3.023,0,0,0,1.643.448,2.883,2.883,0,0,0,1.787-.539,2.292,2.292,0,0,0,.835-1.912q0-1.644-2.335-2.511-.9-.3-2.667-1.016a4.2,4.2,0,0,1-2.643-4.183,4.269,4.269,0,0,1,1.346-3.169,4.971,4.971,0,0,1,3.631-1.313A6.673,6.673,0,0,1,223.4,47.14l.548-.628h.811l.093,5.081h-.81a11.019,11.019,0,0,0-1.452-3.078,2.981,2.981,0,0,0-2.454-1.346,2.3,2.3,0,0,0-1.523.539,2.086,2.086,0,0,0-.739,1.673q0,1.616,2.262,2.482l1.4.508a19.407,19.407,0,0,1,1.811.777,4.2,4.2,0,0,1,1.523,1.376,4.412,4.412,0,0,1,.691,2.539,4.317,4.317,0,0,1-1.476,3.377,5.8,5.8,0,0,1-4,1.375,7.351,7.351,0,0,1-4.021-1.136Zm-48.8.747v-.806a4.331,4.331,0,0,0,1.334-.21,1.064,1.064,0,0,0,.6-1.076V55.268a10.1,10.1,0,0,0-1.143-1.4,7.328,7.328,0,0,0,1.141-1.4V48.779a1.19,1.19,0,0,0-.595-1.133,3.524,3.524,0,0,0-1.358-.3v-.833h7.024a7.723,7.723,0,0,1,5.24,1.793,7.263,7.263,0,0,1,2.358,5.769,6.788,6.788,0,0,1-2.428,5.588,8.485,8.485,0,0,1-5.5,1.763ZM173.125,47.5l-.62.029v11.3a1.461,1.461,0,0,0,.934,1.524,2.274,2.274,0,0,0,.809.12,3.208,3.208,0,0,0,3.024-1.734,10.158,10.158,0,0,0,.857-4.662,9.073,9.073,0,0,0-1.107-4.827,3.515,3.515,0,0,0-3.155-1.779c-.208,0-.459.011-.744.031ZM162.244,61.427l-8.22-11.457v7q0,2.395.643,2.993a1.974,1.974,0,0,0,.811.388,3.973,3.973,0,0,0,.666.269v.807h-5.669V60.62a2.333,2.333,0,0,0,1.274-.553q.609-.493.608-2.973V50.039a2.613,2.613,0,0,0-.581-1.793,2.716,2.716,0,0,0-1.3-.9v-.835h4.906l7.024,10.1V50.966q0-2.392-.643-2.989a2.244,2.244,0,0,0-.81-.418,5.652,5.652,0,0,0-.667-.21v-.835h5.667v.837a2.136,2.136,0,0,0-1.238.509q-.644.538-.643,2.988V61.427Zm-38.241,0-8.22-11.457v7q0,2.395.643,2.993a1.974,1.974,0,0,0,.811.388,3.971,3.971,0,0,0,.666.269v.807h-5.667V60.62a2.333,2.333,0,0,0,1.273-.553q.609-.493.608-2.973V50.039a2.614,2.614,0,0,0-.581-1.793,2.716,2.716,0,0,0-1.3-.9v-.835h4.9l7.024,10.1V50.966q0-2.392-.643-2.989a2.244,2.244,0,0,0-.81-.418,5.654,5.654,0,0,0-.667-.21v-.835h5.667v.837a2.136,2.136,0,0,0-1.238.509q-.644.538-.643,2.988V61.427Zm-18.961,0V60.62q1.881-.178,1.88-.628a2.359,2.359,0,0,0-.093-.479l-.76-2.84h-4.36a5.343,5.343,0,0,0-.357.778q-.24.689-.524,1.888a1.923,1.923,0,0,0-.047.36c0,.218.149.409.451.566.016.1.263.219.739.359v.8H96.566V60.62a2.741,2.741,0,0,0,1.308-.359,3.043,3.043,0,0,0,1.071-1.494l.858-2.331a9.991,9.991,0,0,0-1.145-1.406,9.292,9.292,0,0,0,1.145-.656,3.946,3.946,0,0,0,1.027-.778l.285-.747,2.406-6.546h1.859l2.857,8.01q1.048,3.02,1.762,4.871a2.144,2.144,0,0,0,2.047,1.435v.808Zm-2.762-6.635h3.4l-1.52-5.412Zm98.136,6.635v-.806a4.474,4.474,0,0,0,1.357-.255.937.937,0,0,0,.451-.4l.121-.661V55.268a13.033,13.033,0,0,0-1.143-1.4,7.251,7.251,0,0,0,1.143-1.4v-3.68a2.811,2.811,0,0,0-.093-.628c-.112-.3-.5-.527-1.167-.687-.286-.059-.508-.094-.666-.12v-.831h11.712v3.8h-.714a5.01,5.01,0,0,0-.738-1.465,1.227,1.227,0,0,0-.762-.447c-.239-.04-.492-.085-.761-.135a10.729,10.729,0,0,0-1.571-.075h-1.93v5.022h1.358a2.1,2.1,0,0,0,1.666-.628,3.744,3.744,0,0,0,.738-1.943h.715V56.8h-.715a3.882,3.882,0,0,0-.7-1.974,2.073,2.073,0,0,0-1.7-.661h-1.358v3.347q0,1.317.405,1.66a2.99,2.99,0,0,0,1.763.344,8.3,8.3,0,0,0,2.309-.239,5.821,5.821,0,0,0,.882-.3q.215-.059.81-.837a10.077,10.077,0,0,0,.547-1.344h.691l-.268,4.635ZM34.735,42.8V31.274l4.125.015c-.266-2.706,3.325-2.722,3.066.011l4,.014v13.68Zm2.9-3.4h5.534V33.812H37.628Zm167.991,4.754,1.52-3.929,2.028.566-.451,1.157a3.479,3.479,0,0,1-1.61,1.993,2.1,2.1,0,0,1-1.045.234ZM54.206,42.817c3.082-.48,2.727-4.932,1.506-2.926a2.043,2.043,0,0,1-1.506,1.96V36.539a.491.491,0,0,0-.982.012v2.7a.941.941,0,0,1-.753-.923c-.894-1.815-1.862,1.544.753,1.925v3.458a3.093,3.093,0,0,1-1.611-1.244,1.229,1.229,0,0,1-1.437-.521,1.259,1.259,0,0,1,.161-1.534l-.071-.292a1.847,1.847,0,0,1-1.118-2.1,1.828,1.828,0,0,1,1.865-1.459,1.517,1.517,0,0,1,.532-1.141,1.483,1.483,0,0,1,1.2-.335c.337-1.205,1.635-1.177,1.849.059a1.6,1.6,0,0,1,1.876.4,1.644,1.644,0,0,1,.166,1.932l.138.271a1.825,1.825,0,0,1,.163,3.551l-.265.071a2.767,2.767,0,0,1-2.471,2.445Zm101.426-4.933L155,38.64h-.768l-.117-5.455h.791a7.991,7.991,0,0,0,2.839,4.333,2.879,2.879,0,0,0,1.606.454,2.744,2.744,0,0,0,1.745-.546,2.36,2.36,0,0,0,.815-1.94q0-1.667-2.28-2.549-.886-.3-2.608-1.031a4.27,4.27,0,0,1-2.583-4.243,4.413,4.413,0,0,1,1.315-3.209,4.757,4.757,0,0,1,3.549-1.333,6.341,6.341,0,0,1,3.491,1.031l.534-.636h.792l.093,5.151h-.792a11.274,11.274,0,0,0-1.419-3.121,2.881,2.881,0,0,0-2.4-1.363,2.2,2.2,0,0,0-1.49.546,2.152,2.152,0,0,0-.72,1.7q0,1.638,2.21,2.517l1.374.513a18.851,18.851,0,0,1,1.769.787,4.164,4.164,0,0,1,1.49,1.4,4.606,4.606,0,0,1,.674,2.575,4.459,4.459,0,0,1-1.442,3.424,5.544,5.544,0,0,1-3.911,1.4A6.984,6.984,0,0,1,155.631,37.885ZM94.9,38.945,88.455,20.622a3.687,3.687,0,0,0-3.181-2.558V16.8h9.3v1.263q-2.429.348-2.429.978a3.258,3.258,0,0,0,.187.873q.841,2.763,2.344,6.919,2.184,6.078,2.454,6.847,1.319-3.86,2.21-6.493l1.564-4.7a12.81,12.81,0,0,0,.753-3.123,1,1,0,0,0-.618-.842c-.145-.094-.3-.189-.467-.283a2.485,2.485,0,0,0-.958-.175V16.8h7.575v1.263a3.289,3.289,0,0,0-1.645.6,2.187,2.187,0,0,0-.593.807q-.323.631-.618,1.227L97.54,38.944Zm94.873-.3v-.819a4.257,4.257,0,0,0,1.325-.258.926.926,0,0,0,.442-.41l.118-.666V32.4a13.283,13.283,0,0,0-1.121-1.424,7.285,7.285,0,0,0,1.121-1.423V25.824a2.916,2.916,0,0,0-.093-.635q-.163-.455-1.14-.7c-.28-.06-.5-.1-.654-.121v-.85h11.45v3.848h-.7a5.187,5.187,0,0,0-.723-1.485,1.188,1.188,0,0,0-.747-.454c-.234-.041-.482-.086-.747-.137a9.982,9.982,0,0,0-1.535-.076h-1.886V30.31h1.326a2.011,2.011,0,0,0,1.629-.636,3.885,3.885,0,0,0,.722-1.971h.7v6.243h-.7a4.035,4.035,0,0,0-.687-2,1.992,1.992,0,0,0-1.664-.667h-1.326v3.4q0,1.334.4,1.681a2.833,2.833,0,0,0,1.722.349,7.752,7.752,0,0,0,2.258-.243,5.422,5.422,0,0,0,.861-.3q.21-.059.791-.85a10.65,10.65,0,0,0,.536-1.364h.674l-.256,4.7Zm-63.628,0v-.819q.488-.059,1.3-.243a1.081,1.081,0,0,0,.582-1.09V32.4a9.977,9.977,0,0,0-1.121-1.424,7.246,7.246,0,0,0,1.121-1.423V25.824a1.12,1.12,0,0,0-.582-1.091,4.54,4.54,0,0,0-1.3-.362v-.85h7.074v.85a6.723,6.723,0,0,0-1,.121q-.675.181-.813.514a1.787,1.787,0,0,0-.14.7v3.849a9.936,9.936,0,0,0,1.121,1.423,9.3,9.3,0,0,0-1.121,1.424v2.032q0,1.364.4,1.7a3.233,3.233,0,0,0,1.838.333,10.364,10.364,0,0,0,1.4-.094,2.153,2.153,0,0,0,1.188-.454,7.493,7.493,0,0,0,1.139-1.273,9,9,0,0,0,.4-.85h.654l-.233,4.849Zm-13.242,0v-.819q.488-.059,1.3-.243a1.081,1.081,0,0,0,.582-1.09V32.4a9.977,9.977,0,0,0-1.121-1.424,7.247,7.247,0,0,0,1.121-1.423V25.824a1.12,1.12,0,0,0-.582-1.091,4.54,4.54,0,0,0-1.3-.362v-.85h7.074v.85a6.723,6.723,0,0,0-1,.121q-.675.181-.813.514a1.787,1.787,0,0,0-.14.7v3.849a9.887,9.887,0,0,0,1.121,1.423,9.209,9.209,0,0,0-1.121,1.424v2.032q0,1.364.4,1.7a3.239,3.239,0,0,0,1.838.333,10.364,10.364,0,0,0,1.4-.094,2.153,2.153,0,0,0,1.188-.454,7.491,7.491,0,0,0,1.139-1.273,9,9,0,0,0,.4-.85h.654l-.233,4.849Zm61.18,0v-.819a4.008,4.008,0,0,0,1.308-.211,1.083,1.083,0,0,0,.582-1.091V32.4a9.937,9.937,0,0,0-1.121-1.423,7.223,7.223,0,0,0,1.121-1.425V25.824a1.216,1.216,0,0,0-.582-1.151,3.333,3.333,0,0,0-1.326-.3v-.85h6.866a7,7,0,0,1,5.438,2.127,7.16,7.16,0,0,1,1.987,5.54,7,7,0,0,1-2.375,5.663A8.1,8.1,0,0,1,180.6,38.64Zm5.726-14.122-.606.031V36.006a1.489,1.489,0,0,0,.909,1.546,2.16,2.16,0,0,0,.791.12,3.115,3.115,0,0,0,2.956-1.757,10.641,10.641,0,0,0,.841-4.727,9.484,9.484,0,0,0-1.083-4.893,3.407,3.407,0,0,0-3.082-1.8c-.2,0-.44.011-.72.03ZM146.7,38.642v-.818q1.837-.181,1.838-.635a2.5,2.5,0,0,0-.093-.485l-.747-2.879h-4.258a5.219,5.219,0,0,0-.349.788q-.232.7-.512,1.908a2.214,2.214,0,0,0-.046.364q0,.332.442.575c.014.1.256.224.722.363v.818h-5.284v-.818a2.6,2.6,0,0,0,1.282-.363,3.078,3.078,0,0,0,1.046-1.51l.841-2.36a10.091,10.091,0,0,0-1.121-1.423,9.45,9.45,0,0,0,1.121-.666,3.868,3.868,0,0,0,1-.787l.28-.755,2.351-6.637h1.815l2.793,8.118q1.027,3.061,1.722,4.939a2.1,2.1,0,0,0,2,1.455v.818ZM144,31.915h3.328l-1.49-5.484Zm-39.565,6.727v-.818l.722-.094a1.784,1.784,0,0,0,.654-.122,1.082,1.082,0,0,0,.581-1.091V32.4a9.917,9.917,0,0,0-1.121-1.424,7.208,7.208,0,0,0,1.121-1.423V25.824a1.065,1.065,0,0,0-.546-1.075,5.02,5.02,0,0,0-1.409-.378v-.85h7.144v.85q-.841.094-1,.122-.675.153-.814.5a1.914,1.914,0,0,0-.138.712v3.847a9.776,9.776,0,0,0,1.121,1.423,9.268,9.268,0,0,0-1.121,1.424v4.03a1.117,1.117,0,0,0,.581,1.091,4.749,4.749,0,0,0,1.373.3v.818Zm-65.549-.51V35.082H41.9v3.051Z" transform="translate(-18.701 -4.416)" fill="#fff"/></g></g><script xmlns=""/></svg>