<svg xmlns="http://www.w3.org/2000/svg" width="29" height="29.244" viewBox="0 0 29 29.244"><g id="Grupo_11407" data-name="Grupo 11407" transform="translate(-547 -6551.17)"><path id="Trazado_5204" data-name="Trazado 5204" d="M29,91.792A14.5,14.5,0,1,1,14.5,77.17,14.562,14.562,0,0,1,29,91.792" transform="translate(547 6474)"></path><path id="Trazado_5205" data-name="Trazado 5205" d="M23.762,87.1a2.431,2.431,0,0,0-1.709-1.724c-1.508-.407-7.553-.407-7.553-.407s-6.046,0-7.553.407A2.433,2.433,0,0,0,5.237,87.1a27.477,27.477,0,0,0,0,9.385,2.432,2.432,0,0,0,1.709,1.724c1.508.408,7.553.408,7.553.408s6.046,0,7.553-.408a2.43,2.43,0,0,0,1.709-1.724,25.56,25.56,0,0,0,.4-4.692,25.56,25.56,0,0,0-.4-4.692m-11.2,7.617V88.869l5.023,2.924Z" transform="translate(547 6474)" fill="#fff"></path></g></svg>