<svg xmlns="http://www.w3.org/2000/svg" width="29" height="29.243" viewBox="0 0 29 29.243"><g id="Grupo_11408" data-name="Grupo 11408" transform="translate(-547 -6512.585)"><path id="Trazado_5198" data-name="Trazado 5198" d="M14.5,38.585A14.622,14.622,0,1,1,0,53.207,14.561,14.561,0,0,1,14.5,38.585" transform="translate(547 6474)"></path><path id="Trazado_5199" data-name="Trazado 5199" d="M14.5,45.66c2.438,0,2.726.01,3.689.054a5.009,5.009,0,0,1,1.7.317,3.032,3.032,0,0,1,1.732,1.747,5.117,5.117,0,0,1,.314,1.709c.044.971.053,1.262.053,3.72s-.009,2.75-.053,3.72a5.125,5.125,0,0,1-.314,1.71,3.037,3.037,0,0,1-1.732,1.747,5.03,5.03,0,0,1-1.7.316c-.962.045-1.251.054-3.689.054s-2.727-.01-3.689-.054a5.03,5.03,0,0,1-1.7-.316,3.037,3.037,0,0,1-1.732-1.747,5.125,5.125,0,0,1-.314-1.71c-.044-.97-.053-1.262-.053-3.72s.009-2.749.053-3.72a5.117,5.117,0,0,1,.314-1.709A3.032,3.032,0,0,1,9.116,46.03a5.009,5.009,0,0,1,1.7-.317c.963-.044,1.251-.054,3.689-.054M14.5,44c-2.479,0-2.79.011-3.764.056a6.64,6.64,0,0,0-2.216.428A4.465,4.465,0,0,0,6.9,45.546,4.512,4.512,0,0,0,5.85,47.177a6.835,6.835,0,0,0-.425,2.235c-.044.982-.054,1.3-.054,3.8s.01,2.814.054,3.8a6.835,6.835,0,0,0,.425,2.235A4.688,4.688,0,0,0,8.52,61.93a6.639,6.639,0,0,0,2.216.428c.974.045,1.285.056,3.764.056s2.79-.011,3.764-.056a6.639,6.639,0,0,0,2.216-.428,4.688,4.688,0,0,0,2.67-2.692A6.835,6.835,0,0,0,23.575,57c.044-.982.054-1.3.054-3.8s-.01-2.814-.054-3.8a6.835,6.835,0,0,0-.425-2.235A4.512,4.512,0,0,0,22.1,45.546a4.465,4.465,0,0,0-1.617-1.062,6.64,6.64,0,0,0-2.216-.428C17.29,44.012,16.98,44,14.5,44" transform="translate(547 6474)" fill="#fff"></path><path id="Trazado_5200" data-name="Trazado 5200" d="M14.5,48.479a4.728,4.728,0,1,0,4.688,4.727A4.707,4.707,0,0,0,14.5,48.479m0,7.8a3.069,3.069,0,1,1,3.043-3.069A3.056,3.056,0,0,1,14.5,56.276" transform="translate(547 6474)" fill="#fff"></path><path id="Trazado_5201" data-name="Trazado 5201" d="M20.469,48.293a1.1,1.1,0,1,1-1.1-1.1,1.1,1.1,0,0,1,1.1,1.1" transform="translate(547 6474)" fill="#fff"></path></g></svg>