<svg xmlns="http://www.w3.org/2000/svg" width="29" height="29.244" viewBox="0 0 29 29.244"><g id="Grupo_11411" data-name="Grupo 11411" transform="translate(-547 -6474)"><g id="Grupo_11410" data-name="Grupo 11410"><g id="Grupo_11409" data-name="Grupo 11409"><path id="Trazado_5206" data-name="Trazado 5206" d="M29,14.621a14.5,14.5,0,1,0-29,0A14.589,14.589,0,0,0,12.235,29.065V18.848H8.553V14.621h3.682V11.4c0-3.665,2.165-5.689,5.477-5.689A22.1,22.1,0,0,1,20.957,6V9.6H19.129a2.1,2.1,0,0,0-2.363,2.283v2.743h4.021l-.642,4.227H16.766V29.065A14.588,14.588,0,0,0,29,14.621" transform="translate(547 6474)"></path><path id="Trazado_5207" data-name="Trazado 5207" d="M20.144,18.848l.643-4.227H16.766V11.879A2.1,2.1,0,0,1,19.129,9.6h1.828V6a22.1,22.1,0,0,0-3.246-.286c-3.312,0-5.476,2.024-5.476,5.689v3.221H8.552v4.227h3.682V29.065a14.507,14.507,0,0,0,4.531,0V18.848Z" transform="translate(547 6474)" fill="#fff"></path></g></g></g></svg>