<svg xmlns="http://www.w3.org/2000/svg" width="29" height="29.244" viewBox="0 0 29 29.244"><g id="Grupo_11406" data-name="Grupo 11406" transform="translate(-547 -6589.756)"><path id="Trazado_5202" data-name="Trazado 5202" d="M29,130.378a14.5,14.5,0,1,1-14.5-14.622A14.562,14.562,0,0,1,29,130.378" transform="translate(547 6474)"></path><path id="Trazado_5203" data-name="Trazado 5203" d="M21.475,123.524a9.1,9.1,0,0,0-6.507-2.719A9.292,9.292,0,0,0,7,134.713l-1.306,4.8,4.877-1.289a9.133,9.133,0,0,0,4.4,1.129h0a9.292,9.292,0,0,0,6.506-15.833m-6.506,14.267h0a7.587,7.587,0,0,1-3.892-1.074l-.278-.167-2.894.765.772-2.844-.182-.292a7.723,7.723,0,0,1,6.479-11.808,7.561,7.561,0,0,1,5.4,2.26,7.723,7.723,0,0,1-5.407,13.16m4.193-5.772c-.23-.116-1.36-.676-1.57-.754s-.365-.115-.518.116-.593.754-.728.908-.268.174-.5.058A6.277,6.277,0,0,1,14,131.2a6.963,6.963,0,0,1-1.278-1.6c-.134-.232-.014-.358.1-.473s.23-.271.345-.406a1.563,1.563,0,0,0,.229-.387.431.431,0,0,0-.018-.406c-.058-.116-.517-1.256-.709-1.72s-.376-.391-.517-.4-.288-.008-.441-.008a.842.842,0,0,0-.613.29,2.607,2.607,0,0,0-.8,1.933,4.528,4.528,0,0,0,.938,2.4,10.284,10.284,0,0,0,3.926,3.5,13.107,13.107,0,0,0,1.31.488,3.134,3.134,0,0,0,1.448.092,2.366,2.366,0,0,0,1.551-1.1,1.949,1.949,0,0,0,.134-1.1c-.058-.1-.211-.154-.44-.271" transform="translate(547 6474)" fill="#fff" fill-rule="evenodd"></path></g></svg>